<svg id="Capa_1" data-name="Capa 1" xmlns="http://www.w3.org/2000/svg" viewBox="0 0 601.71 560.12"><defs><style>.cls-1{fill:#fff;}</style></defs><title>stokontrol-b</title><path class="cls-1" d="M396.45,187.62c-28.8,0-56.6-.73-84.35.23-21.56.74-42.61,4.7-60.66,18.3-21.95,16.54-30.67,38.37-28.08,65.46,3.45,36.2,24.25,58.76,56.43,72.15,13.79,5.74,28.2,10,42.17,15.31a64,64,0,0,1,15.36,8.17c14.24,10.63,17.47,32.41,6.54,48a55.73,55.73,0,0,1-16.63,15.33c-25.71,15.3-53.51,25.89-81.94,35-37,11.89-74.8,19.82-113.07,25.85a338.84,338.84,0,0,1-38.12,4c-14.83.63-26.48-6.2-33.8-19.09-7.48-13.16-7.23-26.75.47-39.89q54-92.18,108.11-184.29,49.79-85.11,99.33-170.34c14.21-24.37,51.73-24.48,66.49.1,15.33,25.54,30.13,51.4,45.15,77.12C385.21,168.25,390.53,177.44,396.45,187.62Z"/><path class="cls-1" d="M300.3,496.58c17.72-7.31,35.85-13.77,53.05-22.16,20.89-10.2,38.8-24.49,47.39-47.15,10.23-27,9.92-53.73-4.59-79.36-7.75-13.68-20.57-21.67-34.35-27.89-14.55-6.56-29.67-11.84-44.28-18.27-7.84-3.45-15.83-7.25-22.54-12.45-11.72-9.09-13.06-22.13-10.21-35.75a16.41,16.41,0,0,1,9.81-12c6.18-2.54,12.84-5.33,19.33-5.43,35-.52,70-.19,105-.34,3.82,0,6,1.13,7.88,4.44q39,67.13,78.17,134.1c11.82,20.26,23.56,40.57,35.49,60.77,10.15,17.21,8.31,36.26-5.4,49.9a35.81,35.81,0,0,1-26.12,10.59q-96.72,0-193.45,0H300.06Z"/></svg>